<?xml version="1.0" encoding="UTF-8" standalone="no"?><!DOCTYPE svg PUBLIC "-//W3C//DTD SVG 1.1//EN" "http://www.w3.org/Graphics/SVG/1.1/DTD/svg11.dtd"><svg width="100%" height="100%" viewBox="0 0 20 20" version="1.1" xmlns="http://www.w3.org/2000/svg" xmlns:xlink="http://www.w3.org/1999/xlink" xml:space="preserve" xmlns:serif="http://www.serif.com/" style="fill-rule:evenodd;clip-rule:evenodd;stroke-linecap:round;stroke-linejoin:round;stroke-miterlimit:1.5;"><g id="GreenSignLogo1"><g id="Green-Sign" serif:id="Green Sign"><path d="M10.858,0.755c-0.328,-0.322 -0.859,-0.322 -1.186,0l-9.04,8.922c-0.328,0.322 -0.327,0.846 -0,1.169l8.51,8.399c0.328,0.322 0.859,0.322 1.186,-0l9.04,-8.922c0.328,-0.322 0.327,-0.846 0,-1.169l-8.51,-8.399Z" style="fill:#48742c;"/><path d="M10.823,1.26c-0.308,-0.305 -0.81,-0.305 -1.118,-0l-8.529,8.416c-0.309,0.305 -0.309,0.799 -0,1.104l8.029,7.923c0.309,0.305 0.81,0.305 1.118,0l8.53,-8.416c0.308,-0.305 0.308,-0.799 -0,-1.104l-8.03,-7.923Z" style="fill:#ffce19;fill-opacity:0;stroke:#fff;stroke-width:0.27px;"/><path d="M8.171,14.518c-0.042,-1.958 -0.15,-4.234 0.027,-5.147c0.374,-0.209 2.019,-0.152 3.733,-0.081l-0.274,0.948c-0.056,0.244 0.067,0.4 0.384,0.46l3.761,-2.627l-3.651,-2.627c-0.348,0.02 -0.518,0.161 -0.494,0.433l0.329,1.192l-3.76,0.027c-1.423,0.229 -2.27,0.996 -2.223,2.6l-0.055,4.822l2.223,-0Z" style="fill:#fffcfc;"/></g></g></svg>